<svg width="99" height="140" viewBox="0 0 99 140" fill="none" xmlns="http://www.w3.org/2000/svg">
<path d="M71.3971 44.5642C70.9904 41.3031 69.3632 38.042 66.9226 36.0039L25.0241 2.57799C19.7359 -1.49834 12.4139 -0.683074 8.34604 4.61615C4.27823 9.91538 5.09179 17.2528 10.3799 21.3291L40.8885 45.7871L10.3799 70.245C5.09179 74.3214 4.27823 81.6588 8.34604 86.958C12.4139 92.2572 19.7359 93.0725 25.0241 88.9961L66.9226 54.755C69.77 52.3092 71.3971 49.0481 71.3971 45.3794V44.5642Z" fill="#1CD679"/>
<path d="M92.3976 79.7305C92.3976 73.2018 87.1161 67.9092 80.601 67.9092H65.1924C64.2083 67.9092 63.2531 68.2419 62.4811 68.8534L36.696 89.279C36.2237 89.6532 36.0781 90.3081 36.3474 90.8478C36.5627 91.2793 37.0028 91.5519 37.4842 91.5519H80.6009C87.1161 91.5519 92.3976 86.2593 92.3976 79.7305Z" fill="white"/>
<rect y="113.849" width="2.80188" height="6.53771" fill="white"/>
<rect x="2.80078" y="113.849" width="5.60375" height="2.80188" fill="white"/>
<rect x="3.73242" y="137.198" width="11.2075" height="2.80188" fill="white"/>
<rect x="8.4043" y="113.849" width="2.80188" height="26.1509" fill="white"/>
<rect x="28.0195" y="137.198" width="14.9433" height="2.80188" fill="white"/>
<rect x="28.0195" y="125.056" width="14.9433" height="2.80188" fill="white"/>
<rect x="28.0195" y="113.849" width="14.9433" height="2.80188" fill="white"/>
<rect x="40.1621" y="113.849" width="2.80188" height="26.1509" fill="white"/>
<rect x="56.043" y="137.198" width="14.9433" height="2.80188" fill="white"/>
<rect x="56.043" y="125.056" width="14.9433" height="2.80188" fill="white"/>
<rect x="56.043" y="113.849" width="14.9433" height="2.80188" fill="white"/>
<rect x="68.1836" y="113.849" width="2.80188" height="26.1509" fill="white"/>
<rect x="84.0547" y="113.849" width="2.80188" height="8.40563" fill="white"/>
<rect x="84.0547" y="113.849" width="14.9433" height="2.80188" fill="white"/>
<rect x="96.1953" y="113.849" width="2.80188" height="26.1509" fill="white"/>
</svg>
